<svg width="80" height="17" viewBox="0 0 80 17" fill="none" xmlns="http://www.w3.org/2000/svg">
<g clip-path="url(#clip0_1523_14922)">
<path d="M9.6464 8.1792C9.0976 7.8416 8.4288 7.56 7.6416 7.3344L4.9824 6.5744C4.3776 6.392 3.9136 6.1552 3.5888 5.8672C3.2656 5.5792 3.104 5.1808 3.104 4.6752C3.104 4.0848 3.3424 3.6192 3.8224 3.2816C4.3008 2.944 4.9616 2.7744 5.8064 2.7744C6.6512 2.7744 7.3616 2.9824 7.896 3.3968C8.4304 3.8128 8.7536 4.3504 8.8672 5.0112H11.2944C11.224 4.1248 10.9488 3.3472 10.472 2.6784C9.9936 2.0096 9.3536 1.5008 8.552 1.1488C7.7504 0.796804 6.8352 0.620804 5.808 0.620804C4.7808 0.620804 3.8944 0.793604 3.1056 1.1376C2.3168 1.4832 1.7024 1.9648 1.2592 2.584C0.816 3.2032 0.5936 3.9072 0.5936 4.6944C0.5936 5.8912 0.9248 6.808 1.5856 7.448C2.2464 8.088 3.168 8.5712 4.3504 8.8944L6.968 9.6544C7.6016 9.8368 8.0928 10.1056 8.4448 10.456C8.7968 10.808 8.9728 11.2656 8.9728 11.8272C8.9728 12.4752 8.6944 12.9984 8.1392 13.4C7.5824 13.8016 6.848 14.0016 5.9328 14.0016C5.3136 14.0016 4.744 13.8688 4.2224 13.6C3.7024 13.3328 3.28 12.9744 2.9568 12.5232C2.6336 12.0736 2.4576 11.56 2.4288 10.9824H0C0.0704 12.024 0.3696 12.9376 0.8976 13.7264C1.4256 14.5152 2.128 15.12 3.008 15.5408C3.888 15.9632 4.8624 16.1744 5.9312 16.1744C7 16.1744 8.0176 15.992 8.8544 15.6256C9.6912 15.2592 10.3392 14.7424 10.7968 14.0736C11.2544 13.4048 11.4832 12.6352 11.4832 11.7616C11.4832 10.888 11.3136 10.1392 10.976 9.5552C10.6384 8.9712 10.1952 8.5104 9.6464 8.1728V8.1792Z" fill="#2C0009"/>
<path d="M21.136 5.616C20.2992 5.1312 19.352 4.888 18.2976 4.888C17.2432 4.888 16.2992 5.1312 15.4688 5.616C14.6384 6.1008 13.9872 6.7696 13.5168 7.6208C13.0448 8.472 12.8096 9.44 12.8096 10.5232C12.8096 11.6064 13.0416 12.5776 13.5056 13.4352C13.9696 14.2928 14.6208 14.9648 15.4576 15.4512C16.2944 15.936 17.2416 16.1792 18.296 16.1792C19.3504 16.1792 20.2976 15.936 21.1344 15.4512C21.9712 14.9648 22.6288 14.2944 23.1072 13.4352C23.5856 12.5776 23.8256 11.6064 23.8256 10.5232C23.8256 9.44 23.5856 8.4896 23.1072 7.632C22.6288 6.7744 21.9712 6.1024 21.1344 5.616H21.136ZM21.0624 12.4128C20.7952 12.9696 20.4256 13.4016 19.9536 13.7104C19.4816 14.0208 18.9376 14.1744 18.3184 14.1744C17.6992 14.1744 17.1296 14.0192 16.6512 13.7104C16.1728 13.4016 15.8032 12.9712 15.5424 12.4224C15.2816 11.8736 15.152 11.24 15.152 10.5232C15.152 9.8064 15.2816 9.2112 15.5424 8.6544C15.8032 8.0992 16.1712 7.6656 16.6512 7.3568C17.1296 7.048 17.6784 6.8928 18.2976 6.8928C18.9168 6.8928 19.448 7.048 19.9328 7.3568C20.4176 7.6672 20.7952 8.096 21.0624 8.6448C21.3296 9.1936 21.464 9.8192 21.464 10.5232C21.464 11.2272 21.3296 11.856 21.0624 12.4128Z" fill="#2C0009"/>
<path d="M37.9967 14.0048C37.5599 14.0048 37.1983 13.8608 36.9103 13.5728C36.6223 13.2848 36.4783 12.872 36.4783 12.3376V6.992H39.1519V5.0496H36.4783V1.7776H34.1983V5.0512H31.7823V5.0576H28.6623V3.7808C28.6623 3.2464 28.8063 2.8352 29.0943 2.5456C29.3823 2.256 29.7455 2.1136 30.1807 2.1136C30.6159 2.1136 31.3423 2.1296 31.3423 2.1296V0H29.9487C28.8799 0 28.0175 0.2992 27.3631 0.8976C26.7087 1.496 26.3823 2.3568 26.3823 3.4832V5.056H24.4399V6.9984H26.3823V16.0112H28.6623V6.9984H33.9423V6.992H34.1999V12.528C34.1999 13.6544 34.5279 14.5152 35.1807 15.1136C35.8351 15.712 36.6975 16.0112 37.7663 16.0112H39.1599V13.9904C39.1599 13.9904 38.4207 14.0064 37.9983 14.0064L37.9967 14.0048Z" fill="#2C0009"/>
<path d="M52.3407 1.59359C51.1695 0.916793 49.8463 0.579193 48.3663 0.579193C46.8863 0.579193 45.5775 0.918393 44.3919 1.59359C43.2079 2.27039 42.2815 3.20639 41.6127 4.40479C40.9455 5.60159 40.6111 6.94879 40.6111 8.44479C40.6111 9.94079 40.9455 11.3088 41.6127 12.5056C42.2799 13.7024 43.2031 14.64 44.3807 15.3168C45.5583 15.9936 46.8863 16.3328 48.3647 16.3328C49.8431 16.3328 51.1711 15.9952 52.3487 15.3168C53.5263 14.64 54.4447 13.704 55.1055 12.5056C55.7663 11.3088 56.0959 9.95519 56.0959 8.44479C56.0959 6.93439 55.7615 5.58399 55.0943 4.39519C54.4271 3.20479 53.5071 2.27199 52.3375 1.59519L52.3407 1.59359ZM52.8895 11.3168C52.4447 12.1664 51.8271 12.8352 51.0367 13.3264C50.2463 13.8176 49.3567 14.0624 48.3663 14.0624C47.3759 14.0624 46.4639 13.8176 45.6735 13.3264C44.8831 12.8352 44.2655 12.1648 43.8207 11.3168C43.3759 10.4688 43.1535 9.51039 43.1535 8.44479C43.1535 7.37919 43.3759 6.42079 43.8207 5.57279C44.2655 4.72319 44.8831 4.05759 45.6735 3.57279C46.4623 3.08959 47.3599 2.84639 48.3663 2.84639C49.3727 2.84639 50.2479 3.08799 51.0367 3.57279C51.8271 4.05599 52.4431 4.72639 52.8895 5.58239C53.3343 6.43839 53.5567 7.39199 53.5567 8.44479C53.5567 9.49759 53.3343 10.4688 52.8895 11.3168Z" fill="white"/>
<path d="M65.9521 5.3728C65.3617 5.0496 64.6785 4.888 63.9041 4.888C63.1297 4.888 62.4305 5.0672 61.8033 5.4256C61.1777 5.784 60.6673 6.28 60.2737 6.9136V5.056H57.9729V16.0112H60.2737V11.1984C60.2737 10.312 60.3969 9.552 60.6433 8.9184C60.8897 8.2848 61.2369 7.8 61.6881 7.4624C62.1377 7.1248 62.6721 6.9552 63.2929 6.9552C63.9825 6.9552 64.5313 7.1696 64.9393 7.5984C65.3473 8.0272 65.5521 8.5936 65.5521 9.2976V16.0096H67.8529V8.7904C67.8529 8.016 67.6833 7.3344 67.3457 6.7424C67.0081 6.152 66.5441 5.6944 65.9521 5.3712V5.3728Z" fill="white"/>
<path d="M80 10.1424C80.0144 9.2128 79.8208 8.3488 79.4192 7.5456C79.0176 6.744 78.424 6.0992 77.6352 5.6144C76.8464 5.1296 75.912 4.8864 74.8288 4.8864C73.7456 4.8864 72.76 5.1424 71.9584 5.6576C71.1568 6.1712 70.5505 6.8576 70.1425 7.7152C69.7345 8.5744 69.5312 9.5088 69.5312 10.5232C69.5312 11.5376 69.7456 12.472 70.1744 13.3296C70.6032 14.1888 71.2257 14.8784 72.0417 15.3984C72.8577 15.92 73.8208 16.1792 74.9328 16.1792C75.8048 16.1792 76.5969 16.0352 77.3073 15.7472C78.0177 15.4592 78.6016 15.0336 79.0592 14.4704C79.5168 13.9072 79.808 13.24 79.9344 12.4656H77.6752C77.5488 13.0144 77.2433 13.4432 76.7569 13.7536C76.2721 14.064 75.6832 14.2176 74.9952 14.2176C74.0096 14.2176 73.2288 13.888 72.6528 13.2256C72.1776 12.6816 71.9008 11.9616 71.8176 11.0736H79.9552C79.9824 10.7216 79.9969 10.4128 79.9969 10.144L80 10.1424ZM71.9121 9.256C71.9713 8.9744 72.0464 8.7088 72.1488 8.464C72.3872 7.8944 72.736 7.4576 73.1936 7.1552C73.6512 6.8528 74.1968 6.7008 74.8288 6.7008C75.3632 6.7008 75.8273 6.8096 76.2225 7.0288C76.6161 7.2464 76.9216 7.5488 77.1408 7.936C77.3584 8.3232 77.4896 8.7632 77.5312 9.256H71.9121Z" fill="white"/>
</g>
<defs>
<clipPath id="clip0_1523_14922">
<rect width="80" height="16.3296" fill="white"/>
</clipPath>
</defs>
</svg>
