<?xml version="1.0" encoding="utf-8"?>
<!-- Generator: Adobe Illustrator 12.0.0, SVG Export Plug-In . SVG Version: 6.00 Build 51448)  -->
<!DOCTYPE svg PUBLIC "-//W3C//DTD SVG 1.1//EN" "http://www.w3.org/Graphics/SVG/1.1/DTD/svg11.dtd" [
	<!ENTITY ns_svg "http://www.w3.org/2000/svg">
	<!ENTITY ns_xlink "http://www.w3.org/1999/xlink">
]>
<svg  version="1.1" id="Layer_1" xmlns="&ns_svg;" xmlns:xlink="&ns_xlink;" width="268.255" height="54.976"
	 viewBox="0 0 268.255 54.976" overflow="visible" enable-background="new 0 0 268.255 54.976" xml:space="preserve">
<path fill="#FFFFFF" d="M15.128,54.066c-7.003,0-9.874-2.102-12.466-2.102H0c0,0,0.141-4.342,0.141-6.443S0,39.148,0,39.148h3.992
	c0,7.633,5.184,10.436,11.276,10.436c5.392,0,10.295-1.541,10.295-7.844c0-5.393-6.582-6.934-12.956-9.596
	C6.443,29.552,0.49,26.191,0.49,18.488c0-4.412,2.172-7.774,5.674-10.016c3.012-1.89,7.073-2.871,11.695-2.871
	c5.883,0,8.405,1.33,11.206,1.33h2.662c0,0-0.141,3.713-0.141,5.815c0,2.099,0.141,5.742,0.141,5.742h-3.993
	c0-3.082-1.89-8.404-9.525-8.404c-2.73,0-4.832,0.419-6.303,1.261c-1.68,0.981-2.521,2.52-2.521,4.762
	c0,5.463,6.373,7.072,12.396,9.594c7.774,3.222,12.887,5.183,12.887,13.236C34.668,48.533,25.633,54.066,15.128,54.066"/>
<path fill="#FFFFFF" d="M64.395,36.416c0,6.795-1.89,13.238-8.683,13.238c-6.793,0-8.475-6.654-8.475-13.447
	c0-6.303,1.611-13.096,8.895-13.096C63.065,23.11,64.395,31.023,64.395,36.416 M74.411,36.207c0-10.785-5.953-17.859-18.279-17.859
	c-11.205,0-18.979,7.705-18.979,18.208c0,12.326,7.844,17.859,18.35,17.859C65.516,54.416,74.411,47.412,74.411,36.207"/>
<path fill="#FFFFFF" d="M101.033,9.314c-1.68-1.121-4.342-2.803-7.773-2.803c-5.114,0-4.903,4.903-4.903,9.596v3.572h9.104v4.832
	h-9.104v20.661c0,4.271,2.662,4.551,5.463,4.551v3.992c-2.101,0-6.584-0.139-10.086-0.139c-3.5,0-7.492,0.139-9.174,0.139v-3.992
	c2.801,0,4.694-0.279,4.694-4.551V24.511h-5.325v-4.832h5.325v-2.662C79.254,5.251,88.568,0,95.431,0c4.692,0,7.493,0.98,9.805,2.8
	L101.033,9.314z"/>
<path fill="#FFFFFF" d="M113.604,54.345c-6.512,0-10.084-2.871-9.943-11.486l0.279-18.348h-3.922v-3.992
	c3.781-2.522,7.703-6.373,9.244-8.754h3.992l-0.14,7.914h11.975v4.832h-12.046l-0.279,16.457c-0.07,5.604,1.891,7.215,5.813,7.215
	c1.261,0,3.222-0.49,4.692-1.541l1.82,3.711C123.62,51.894,119.208,54.345,113.604,54.345"/>
<path fill="#FFFFFF" d="M175.675,30.603c0,13.447-5.814,19.82-15.479,19.82c-11.766,0-15.829-10.295-15.829-20.871
	c0-12.395,5.043-20.379,15.969-20.379C172.103,9.173,175.675,18.908,175.675,30.603 M186.45,29.623
	c0-14.846-8.676-25.002-24.924-25.002c-17.508,0-28.014,10.295-28.014,25.844c0,15.336,9.807,24.512,26.824,24.512
	C175.953,54.976,186.45,43.56,186.45,29.623"/>
<path fill="#FFFFFF" d="M250.929,31.513l-12.885-0.068c0-4.204,2.17-8.755,6.582-8.755
	C249.249,22.689,250.929,27.382,250.929,31.513 M260.384,47.552l-1.891-3.713c-2.801,2.242-5.883,3.432-10.084,3.432
	c-4.203,0-10.506-2.381-10.506-11.975l22.201,0.139v-2.52c0-7.705-4.832-14.568-14.637-14.568c-10.436,0-16.67,8.125-16.67,18.49
	c0,9.664,5.533,17.578,16.6,17.578C253.101,54.416,258.144,50.003,260.384,47.552"/>
<path fill="#FFFFFF" d="M267.159,12.201c0,2.738-1.809,4.273-4.191,4.273c-1.438,0-4.435-0.604-4.435-4.355
	c0-3.026,2-4.259,4.327-4.259C265.05,7.86,267.159,9.188,267.159,12.201 M268.255,12.204c0-3.492-2.346-5.275-5.424-5.275
	c-3.021,0-5.41,1.916-5.41,5.275c0,3.904,3.021,5.188,5.441,5.188C265.867,17.392,268.255,15.401,268.255,12.204 M265.952,14.789
	v-0.492c-0.779,0-1.697-1.411-2.053-1.876c0.355-0.165,1.176-0.795,1.176-1.508c0-0.943-0.752-1.41-2.23-1.41
	c-0.344,0-0.697,0.013-1.314,0.013c-0.615,0-0.986-0.013-1.395-0.013v0.535c0.422,0,0.793,0.191,0.793,0.506v3.301
	c0,0.314-0.248,0.505-0.74,0.505v0.535c0.41,0,0.658-0.028,1.342-0.028c0.686,0,0.902,0.028,1.314,0.028V14.35
	c-0.494,0-0.738-0.191-0.738-0.505v-1.137c0.164,0.014,0.67,0.055,0.766,0.068c0.096,0.164,0.574,1.069,1.232,1.726
	c0.369,0.369,0.686,0.396,1.205,0.396C265.665,14.898,265.952,14.789,265.952,14.789 M263.804,11.079
	c0,0.697-0.344,1.204-0.863,1.204c-0.232,0-0.629-0.041-0.834-0.068v-2.122c0.082-0.014,0.15-0.028,0.697-0.028
	C263.433,10.065,263.804,10.475,263.804,11.079"/>
<path fill="#EC1C24" d="M202.962,18.347h-4.131c-2.172,1.19-7.703,2.941-10.855,3.502v3.502h5.883V45.17
	c0,4.271-1.891,4.552-4.691,4.552v3.992c1.68,0,5.672-0.139,9.174-0.139s7.213,0.139,9.314,0.139v-3.992
	c-2.801,0-4.693-0.28-4.693-4.552V18.347z"/>
<path fill="#FFFFFF" d="M225.772,45.171V30.394c0-9.175-6.094-12.046-11.695-12.046c-3.541,0-6.471,1.432-8.541,2.996v5.171
	c1.131-0.578,2.586-1.024,4.408-1.024c4.482,0,6.723,3.153,6.723,7.423v12.257c0,4.271-1.891,4.552-4.691,4.552v3.992
	c1.68,0,5.672-0.139,9.174-0.139s7.215,0.139,9.314,0.139v-3.992C227.663,49.723,225.772,49.442,225.772,45.171"/>
</svg>
