<?xml version="1.0" encoding="utf-8"?>
<!-- Generator: Adobe Illustrator 19.1.0, SVG Export Plug-In . SVG Version: 6.00 Build 0)  -->
<!DOCTYPE svg PUBLIC "-//W3C//DTD SVG 1.1//EN" "http://www.w3.org/Graphics/SVG/1.1/DTD/svg11.dtd">
<svg version="1.1" id="Lager_1" xmlns="http://www.w3.org/2000/svg" xmlns:xlink="http://www.w3.org/1999/xlink" x="0px" y="0px"
	 width="100px" height="100px" viewBox="0 0 100 100" enable-background="new 0 0 100 100" xml:space="preserve">
<g>
	<path fill="#FFFFFF" d="M48,12.6C29,13.9,12.8,30.1,12.8,50c0,20.7,16.6,37.5,37.3,37.5c3.5,0,7.1-0.5,10.3-1.4L48,49.7V12.6z"/>
	<path fill="#FFFFFF" d="M87.4,50c0-7.1-2-13.8-5.4-19.4L52.1,51.1l12,33.6C77.7,79.1,87.4,65.7,87.4,50z"/>
	<path fill="#F1801C" d="M51.4,46.8L79.5,27c-6.6-8.4-16.7-14-28.1-14.4C51.4,23.8,51.4,46.8,51.4,46.8z"/>
</g>
</svg>
