<?xml version="1.0" encoding="utf-8"?>
<!-- Generator: Adobe Illustrator 19.1.0, SVG Export Plug-In . SVG Version: 6.00 Build 0)  -->
<!DOCTYPE svg PUBLIC "-//W3C//DTD SVG 1.1//EN" "http://www.w3.org/Graphics/SVG/1.1/DTD/svg11.dtd">
<svg version="1.1" id="Lager_1" xmlns="http://www.w3.org/2000/svg" xmlns:xlink="http://www.w3.org/1999/xlink" x="0px" y="0px"
	 width="100px" height="100px" viewBox="0 0 100 100" enable-background="new 0 0 100 100" xml:space="preserve">
<g>
	<g>
		<polygon fill="#FFFFFF" points="57.6,33.8 57.6,14.4 22.9,14.4 22.9,85.6 77.1,85.6 77.1,33.8 		"/>
		<polygon fill="#FFFFFF" points="77.1,30.6 60.9,14.4 60.9,30.6 		"/>
	</g>
	<g>
		<rect x="35.4" y="43.1" transform="matrix(0.8592 0.5117 -0.5117 0.8592 37.5028 -16.5632)" fill="#A72229" width="26.9" height="33.5"/>
		
			<rect x="44.6" y="48" transform="matrix(0.8592 0.5117 -0.5117 0.8592 33.4172 -20.8189)" fill="#FFFFFF" width="19.9" height="4.7"/>
		<g>
			
				<rect x="41.4" y="51.5" transform="matrix(0.8592 0.5117 -0.5117 0.8592 33.6712 -15.0135)" fill="#F1801C" width="5.4" height="4.4"/>
			
				<rect x="53.9" y="58.9" transform="matrix(0.8592 0.5117 -0.5117 0.8592 39.2074 -20.3285)" fill="#F1801C" width="5.4" height="4.4"/>
			
				<rect x="47.6" y="55.2" transform="matrix(0.8592 0.5117 -0.5117 0.8592 36.4393 -17.671)" fill="#F1801C" width="5.4" height="4.4"/>
		</g>
		<g>
			
				<rect x="38.3" y="56.8" transform="matrix(0.8592 0.5117 -0.5117 0.8592 35.9461 -12.6439)" fill="#F1801C" width="5.4" height="4.4"/>
			
				<rect x="50.7" y="64.2" transform="matrix(0.8592 0.5117 -0.5117 0.8592 41.4823 -17.9589)" fill="#F1801C" width="5.4" height="4.4"/>
			
				<rect x="44.5" y="60.5" transform="matrix(0.8592 0.5117 -0.5117 0.8592 38.7142 -15.3014)" fill="#F1801C" width="5.4" height="4.4"/>
		</g>
		<g>
			
				<rect x="35.1" y="62.1" transform="matrix(0.8592 0.5117 -0.5117 0.8592 38.221 -10.2744)" fill="#F1801C" width="5.4" height="4.4"/>
			
				<rect x="47.5" y="69.5" transform="matrix(0.8592 0.5117 -0.5117 0.8592 43.7572 -15.5893)" fill="#F1801C" width="5.4" height="4.4"/>
			
				<rect x="41.3" y="65.8" transform="matrix(0.8592 0.5117 -0.5117 0.8592 40.9891 -12.9318)" fill="#F1801C" width="5.4" height="4.4"/>
		</g>
	</g>
</g>
</svg>
