<?xml version="1.0" encoding="utf-8"?>
<!-- Generator: Adobe Illustrator 19.1.0, SVG Export Plug-In . SVG Version: 6.00 Build 0)  -->
<!DOCTYPE svg PUBLIC "-//W3C//DTD SVG 1.1//EN" "http://www.w3.org/Graphics/SVG/1.1/DTD/svg11.dtd">
<svg version="1.1" id="Lager_1" xmlns="http://www.w3.org/2000/svg" xmlns:xlink="http://www.w3.org/1999/xlink" x="0px" y="0px"
	 width="100px" height="100px" viewBox="0 0 100 100" enable-background="new 0 0 100 100" xml:space="preserve">
<g>
	<path fill="#FFFFFF" d="M9.4,17v68.6H28V17H9.4z M18.7,80c-2.4,0-4.4-2-4.4-4.4s2-4.4,4.4-4.4s4.4,2,4.4,4.4S21.1,80,18.7,80z
		 M23.7,42h-9.9V21.3h9.9V42z"/>
	<path fill="#FFFFFF" d="M31.2,17v68.6h18.7V17H31.2z M40.5,80c-2.4,0-4.4-2-4.4-4.4s2-4.4,4.4-4.4s4.4,2,4.4,4.4S43,80,40.5,80z
		 M45.5,42h-9.9V21.3h9.9V42z"/>
	<path fill="#F1801C" d="M52.8,19.9l20,65.6l17.9-5.4l-20-65.6L52.8,19.9z M80.1,77.5c-2.3,0.7-4.8-0.6-5.5-2.9
		c-0.7-2.3,0.6-4.8,2.9-5.5c2.3-0.7,4.8,0.6,5.5,2.9C83.7,74.3,82.4,76.8,80.1,77.5z M73.7,39.7l-9.5,2.9l-6-19.8l9.5-2.9L73.7,39.7
		z"/>
</g>
</svg>
