<?xml version="1.0" encoding="utf-8"?>
<!-- Generator: Adobe Illustrator 19.1.0, SVG Export Plug-In . SVG Version: 6.00 Build 0)  -->
<!DOCTYPE svg PUBLIC "-//W3C//DTD SVG 1.1//EN" "http://www.w3.org/Graphics/SVG/1.1/DTD/svg11.dtd">
<svg version="1.1" id="Lager_1" xmlns="http://www.w3.org/2000/svg" xmlns:xlink="http://www.w3.org/1999/xlink" x="0px" y="0px"
	 width="100px" height="100px" viewBox="0 0 100 100" enable-background="new 0 0 100 100" xml:space="preserve">
<g>
	<path fill="#F1801C" d="M89.1,35.6c0.4-1.5,1.9-2.5,3.8-2.8c0.1-2.2-0.2-4.4-0.8-6.4c-2,0.3-3.7-0.3-4.5-1.6
		c-0.8-1.3-0.4-3.1,0.8-4.7c-1.4-1.6-3.2-2.9-5.2-3.9c-1.2,1.6-2.8,2.4-4.3,2c-1.5-0.4-2.5-1.9-2.8-3.8c-2.2-0.1-4.4,0.3-6.4,1
		c0.2,1.9-0.3,3.6-1.6,4.3c-1.3,0.7-3,0.4-4.5-0.6c-1.6,1.5-2.9,3.2-3.9,5.2c1.4,1.2,2.1,2.7,1.8,4.1c-0.4,1.4-1.7,2.3-3.5,2.7
		c-0.1,2.2,0.2,4.4,0.9,6.5c1.8-0.1,3.3,0.4,4,1.7c0.7,1.2,0.5,2.8-0.5,4.3c1.4,1.6,3.2,3,5.2,4c1.2-1.3,2.7-2,4-1.7
		c1.4,0.4,2.3,1.7,2.7,3.5c2.2,0.1,4.4-0.2,6.5-0.8c-0.2-1.8,0.4-3.4,1.7-4.2c1.3-0.7,3-0.4,4.5,0.6c1.6-1.4,3-3.2,4-5.1
		C89.5,38.6,88.7,37,89.1,35.6z M74.3,36.1c-2.4-0.6-3.8-3-3.1-5.4c0.6-2.4,3-3.8,5.4-3.1c2.4,0.6,3.8,3,3.1,5.4
		C79.1,35.3,76.7,36.7,74.3,36.1z"/>
	<path fill="#FFFFFF" d="M60.1,57.4c0-1.8,1.7-3.4,4.1-4.1c-0.1-1-0.3-2-0.6-3c-2.5,0.3-4.7-0.5-5.4-2.2c-0.7-1.7,0.3-3.8,2.2-5.3
		c-0.5-0.9-1.1-1.8-1.7-2.6c-2.2,1.2-4.5,1.3-5.8,0c-1.3-1.3-1.2-3.6,0-5.8c-0.8-0.6-1.7-1.2-2.6-1.7c-1.5,2-3.6,2.9-5.3,2.2
		c-1.7-0.7-2.5-2.9-2.2-5.3c-1-0.3-2-0.5-3-0.6c-0.7,2.4-2.2,4.1-4.1,4.1c-1.8,0-3.4-1.7-4.1-4.1c-1,0.1-2,0.4-3,0.6
		c0.3,2.5-0.5,4.6-2.2,5.3c-1.7,0.7-3.8-0.3-5.3-2.2c-0.9,0.5-1.7,1.1-2.6,1.7c1.2,2.2,1.3,4.5,0,5.8c-1.3,1.3-3.6,1.2-5.8,0
		c-0.6,0.8-1.2,1.7-1.7,2.6c2,1.5,2.9,3.6,2.2,5.3c-0.7,1.7-2.9,2.5-5.4,2.2c-0.3,1-0.4,2-0.6,3c2.4,0.7,4.1,2.2,4.1,4.1
		c0,1.8-1.7,3.4-4.1,4.1c0.1,1,0.4,2,0.6,3c2.5-0.3,4.6,0.5,5.3,2.2c0.7,1.7-0.3,3.8-2.2,5.3c0.5,0.9,1.1,1.7,1.7,2.6
		c2.2-1.2,4.5-1.3,5.8,0c1.3,1.3,1.2,3.6,0,5.8c0.8,0.6,1.7,1.2,2.6,1.7c1.5-2,3.6-2.9,5.3-2.2c1.7,0.7,2.5,2.9,2.2,5.4
		c1,0.3,2,0.4,3,0.6c0.7-2.4,2.2-4.1,4.1-4.1c1.8,0,3.4,1.7,4.1,4.1c1-0.1,2-0.4,3-0.6c-0.3-2.5,0.5-4.6,2.2-5.3
		c1.7-0.7,3.8,0.3,5.3,2.2c0.9-0.5,1.8-1.1,2.6-1.7c-1.2-2.2-1.3-4.5,0-5.8c1.3-1.3,3.6-1.2,5.8,0c0.6-0.8,1.2-1.7,1.7-2.6
		c-2-1.5-2.9-3.6-2.2-5.3c0.7-1.7,2.9-2.5,5.3-2.2c0.3-1,0.5-2,0.6-3C61.7,60.8,60.1,59.2,60.1,57.4z M35.9,65.1
		c-4.3,0-7.7-3.5-7.7-7.7c0-4.3,3.5-7.7,7.7-7.7c4.3,0,7.7,3.5,7.7,7.7C43.6,61.7,40.1,65.1,35.9,65.1z"/>
</g>
</svg>
