<?xml version="1.0" encoding="utf-8"?>
<!-- Generator: Adobe Illustrator 19.1.0, SVG Export Plug-In . SVG Version: 6.00 Build 0)  -->
<!DOCTYPE svg PUBLIC "-//W3C//DTD SVG 1.1//EN" "http://www.w3.org/Graphics/SVG/1.1/DTD/svg11.dtd">
<svg version="1.1" id="Lager_1" xmlns="http://www.w3.org/2000/svg" xmlns:xlink="http://www.w3.org/1999/xlink" x="0px" y="0px"
	 width="100px" height="100px" viewBox="0 0 100 100" enable-background="new 0 0 100 100" xml:space="preserve">
<g>
	<path fill="#FFFFFF" d="M59.3,52.8H40.7c-12.5,0-22.8,10.3-22.8,22.8v12h9.9V72.1h2.3v15.5h39.7V72.1h2.3v15.5h9.9v-12
		C82.1,63.1,71.9,52.8,59.3,52.8z"/>
	<path fill="#FFFFFF" d="M53.6,18.1C51.7,27.8,43.1,35,32.9,35h-1.5c1.9,9,9.3,14.8,18.3,14.8c9.7,0,17.7-7.5,18.7-17
		C61,31,55.5,25.4,53.6,18.1z"/>
	<path fill="#F1801C" d="M55.5,13.3c0.1,3.7,1.2,7.4,3.6,10.6c2.5,3.2,5.8,5.5,9.4,6.6C68.1,22.4,62.8,15.6,55.5,13.3z"/>
	<path fill="#F1801C" d="M51.7,12.6c0,0,0-0.1,0-0.1c-0.6-0.1-1.3-0.1-1.9-0.1C39.4,12.4,31,20.8,31,31.1c0,0.9,0.1,1.7,0.2,2.5
		C43.2,33.6,51.7,24.2,51.7,12.6z"/>
</g>
</svg>
