<?xml version="1.0" standalone="no"?>
<!DOCTYPE svg PUBLIC "-//W3C//DTD SVG 20010904//EN"
 "http://www.w3.org/TR/2001/REC-SVG-20010904/DTD/svg10.dtd">
<svg version="1.0" xmlns="http://www.w3.org/2000/svg"
 width="1191.000000pt" height="842.000000pt" viewBox="0 0 1191.000000 842.000000"
 preserveAspectRatio="xMidYMid meet">
<metadata>
Created by potrace 1.15, written by Peter Selinger 2001-2017
</metadata>
<g transform="translate(0.000000,842.000000) scale(0.100000,-0.100000)"
fill="#ffffff" stroke="none">
<path d="M4895 7638 c-243 -27 -500 -125 -705 -269 -142 -100 -322 -290 -414
-440 -28 -44 -30 -45 -111 -62 -273 -56 -601 -215 -835 -404 -103 -83 -284
-271 -357 -370 -597 -806 -533 -1920 153 -2642 324 -342 747 -562 1203 -625
61 -9 138 -16 170 -16 l57 0 17 -92 c96 -542 522 -966 1071 -1065 132 -24 343
-21 473 6 280 58 505 181 697 382 79 81 185 221 197 258 3 7 37 -2 92 -24 118
-49 211 -67 342 -67 360 0 687 221 815 553 16 43 30 85 30 93 0 21 2 22 152
60 841 215 1448 925 1537 1795 37 362 -31 748 -193 1086 -306 639 -917 1072
-1630 1156 -127 15 -441 6 -561 -15 -199 -36 -368 -89 -534 -167 -46 -21 -86
-39 -88 -39 -2 0 -11 17 -20 38 -28 67 -121 219 -185 299 -330 415 -846 630
-1373 571z m-415 -1292 c166 -35 284 -81 523 -208 27 -15 47 -18 73 -14 43 9
106 63 141 123 l25 43 184 0 184 0 0 -470 0 -470 -184 0 -183 0 -39 62 c-88
143 -266 295 -439 373 -268 122 -533 133 -775 31 -105 -45 -177 -93 -271 -183
-134 -128 -224 -281 -277 -473 -24 -86 -27 -111 -27 -270 0 -152 3 -186 23
-260 55 -201 145 -354 290 -491 271 -257 639 -317 970 -159 46 22 97 49 113
61 l29 21 -2 -277 -3 -277 -70 -29 c-176 -76 -363 -112 -580 -112 -179 0 -301
19 -465 73 -663 217 -1093 865 -1031 1554 34 375 188 696 457 956 235 226 522
365 859 414 66 10 402 -3 475 -18z m3087 13 c644 -86 1159 -579 1279 -1224 25
-132 25 -400 1 -532 -86 -466 -391 -872 -814 -1082 -422 -210 -916 -209 -1338
2 -150 75 -268 160 -391 282 -220 220 -365 493 -421 798 -27 142 -24 420 6
557 31 147 73 265 137 391 221 432 630 729 1109 804 100 16 329 18 432 4z
m-1957 -2504 c4 -692 9 -969 17 -992 22 -61 52 -92 126 -127 40 -19 96 -41
125 -51 l52 -17 0 -124 0 -124 -635 0 -635 0 0 129 0 128 98 27 c113 32 151
57 183 123 l24 48 0 735 0 735 -187 15 c-103 9 -191 19 -195 24 -4 4 -8 53 -8
108 l0 100 225 80 c124 43 275 95 335 113 110 34 111 34 290 32 l180 -2 5
-960z"/>
<path d="M7255 5875 c-379 -69 -665 -492 -665 -985 0 -298 99 -570 278 -761
92 -98 189 -163 301 -203 76 -26 99 -30 196 -30 94 1 122 5 190 28 254 87 464
334 545 642 67 258 48 563 -50 792 -55 131 -111 212 -210 313 -81 82 -109 103
-190 143 -65 32 -121 51 -175 61 -96 17 -128 17 -220 0z"/>
</g>
</svg>
