<?xml version="1.0" encoding="utf-8"?>
<!-- Generator: Adobe Illustrator 27.9.0, SVG Export Plug-In . SVG Version: 6.00 Build 0)  -->
<svg version="1.1" id="Lager_1" xmlns="http://www.w3.org/2000/svg" xmlns:xlink="http://www.w3.org/1999/xlink" x="0px" y="0px"
	 viewBox="0 0 1024 1024" style="enable-background:new 0 0 1024 1024;" xml:space="preserve">
<style type="text/css">
	.st0{fill:#00030F;}
	.st1{fill:#99D1C7;}
</style>
<g>
	<path class="st0" d="M938.46,1024H85.54C38.49,1024,0,985.51,0,938.46V85.54C0,38.49,38.49,0,85.54,0h852.93
		C985.51,0,1024,38.49,1024,85.54v852.93C1024,985.51,985.51,1024,938.46,1024z"/>
	<g>
		<polygon class="st1" points="692.45,135.86 95.55,135.86 95.55,890.05 261.52,890.05 259.43,699.2 258.86,587.24 303.97,587.24 
			435.3,435.49 258.86,435.49 259.43,284.79 563.78,285.32 		"/>
		<polygon class="st1" points="935.73,135.92 742.51,135.5 365.38,587.22 684,890.05 936.7,890.05 580.43,582.6 		"/>
	</g>
</g>
</svg>
