<svg width="32" height="32" viewBox="0 0 32 32" fill="none" xmlns="http://www.w3.org/2000/svg">
<g clip-path="url(#clip0_791_55341)">
<path d="M25.1767 32H6.82329C3.05531 32 0 28.9447 0 25.1767V6.82329C0 3.0553 3.05531 0 6.82329 0H25.1767C28.9447 0 32 3.0553 32 6.82329V25.1767C32 28.9447 28.9447 32 25.1767 32Z" fill="#63080D"/>
<path d="M3.85449 21.9839C3.85449 18.2875 6.44264 15.9926 9.65025 15.9926C12.435 15.9926 14.5344 17.5237 14.9743 20.1937H12.5805C12.3043 18.8263 11.1472 17.8976 9.61729 17.8976C7.59861 17.8976 6.08459 19.4764 6.08459 21.9839C6.08459 24.4424 7.5179 26.0701 9.748 26.0701C11.5553 26.0701 12.7431 24.9789 12.8579 23.449H9.32517V21.6747H14.9266V27.8615H12.9238V26.3315C12.4032 27.3079 11.0677 27.9922 9.60251 27.9922C6.49151 27.9922 3.85449 26.0053 3.85449 21.9839Z" fill="#EC3641"/>
<path d="M16.2922 21.9839C16.2922 18.5319 18.7997 15.9926 22.2346 15.9926C25.6377 15.9926 28.1452 18.516 28.1452 21.9839C28.1452 25.4677 25.6377 27.9922 22.2358 27.9922C18.7997 27.9922 16.2922 25.4518 16.2922 21.9839ZM25.9151 21.9839C25.9151 19.639 24.384 17.8976 22.2346 17.8976C20.0693 17.8976 18.5223 19.6401 18.5223 21.9839C18.5223 24.3447 20.0693 26.0701 22.2346 26.0701C24.384 26.0713 25.9151 24.3447 25.9151 21.9839Z" fill="#EC3641"/>
</g>
<defs>
<clipPath id="clip0_791_55341">
<rect width="32" height="32" fill="white"/>
</clipPath>
</defs>
</svg>
