<svg width="283" height="283" viewBox="0 0 283 283" fill="none" xmlns="http://www.w3.org/2000/svg">
<path d="M222.46 282.45H60.99C27.84 282.45 0.959961 255.57 0.959961 222.42V60.95C0.959961 27.8 27.84 0.919983 60.99 0.919983H222.46C255.61 0.919983 282.49 27.8 282.49 60.95V222.42C282.49 255.57 255.61 282.45 222.46 282.45Z" fill="#EF3641"/>
<path d="M34.8699 194.33C34.8699 161.81 57.6399 141.62 85.8599 141.62C110.36 141.62 128.83 155.09 132.7 178.58H111.64C109.21 166.55 99.0299 158.38 85.5699 158.38C67.8099 158.38 54.4899 172.27 54.4899 194.33C54.4899 215.96 67.0999 230.28 86.7199 230.28C102.62 230.28 113.07 220.68 114.08 207.22H82.9999V191.61H132.28V246.04H114.66V232.58C110.08 241.17 98.3299 247.19 85.4399 247.19C58.0699 247.19 34.8699 229.71 34.8699 194.33Z" fill="#63080D"/>
<path d="M144.3 194.33C144.3 163.96 166.36 141.62 196.58 141.62C226.52 141.62 248.58 163.82 248.58 194.33C248.58 224.98 226.52 247.19 196.59 247.19C166.36 247.19 144.3 224.84 144.3 194.33ZM228.96 194.33C228.96 173.7 215.49 158.38 196.58 158.38C177.53 158.38 163.92 173.71 163.92 194.33C163.92 215.1 177.53 230.28 196.58 230.28C215.49 230.29 228.96 215.1 228.96 194.33Z" fill="#63080D"/>
</svg>
