<svg width="32" height="32" viewBox="0 0 32 32" fill="none" xmlns="http://www.w3.org/2000/svg">
<g clip-path="url(#clip0_791_55332)">
<path d="M25.1767 32H6.82329C3.05531 32 0 28.9447 0 25.1767V6.82329C0 3.0553 3.05531 0 6.82329 0H25.1767C28.9447 0 32 3.0553 32 6.82329V25.1767C32 28.9447 28.9447 32 25.1767 32Z" fill="white"/>
<path d="M3.85425 21.9838C3.85425 18.2874 6.44239 15.9925 9.65001 15.9925C12.4348 15.9925 14.5342 17.5236 14.9741 20.1935H12.5803C12.3041 18.8262 11.147 17.8975 9.61705 17.8975C7.59836 17.8975 6.08435 19.4763 6.08435 21.9838C6.08435 24.4423 7.51766 26.07 9.74776 26.07C11.555 26.07 12.7428 24.9788 12.8576 23.4489H9.32493V21.6746H14.9263V27.8614H12.9236V26.3314C12.403 27.3078 11.0674 27.9921 9.60227 27.9921C6.49127 27.9921 3.85425 26.0052 3.85425 21.9838Z" fill="#EC3641"/>
<path d="M16.2927 21.9838C16.2927 18.5318 18.8002 15.9925 22.2351 15.9925C25.6382 15.9925 28.1457 18.5158 28.1457 21.9838C28.1457 25.4676 25.6382 27.9921 22.2362 27.9921C18.8002 27.9921 16.2927 25.4517 16.2927 21.9838ZM25.9156 21.9838C25.9156 19.6389 24.3845 17.8975 22.2351 17.8975C20.0698 17.8975 18.5228 19.64 18.5228 21.9838C18.5228 24.3446 20.0698 26.07 22.2351 26.07C24.3845 26.0711 25.9156 24.3446 25.9156 21.9838Z" fill="#EC3641"/>
</g>
<defs>
<clipPath id="clip0_791_55332">
<rect width="32" height="32" fill="white"/>
</clipPath>
</defs>
</svg>
